<svg width="161" height="13" viewBox="0 0 161 13" fill="none" xmlns="http://www.w3.org/2000/svg">
<g clip-path="url(#clip0_1036_15409)">
<path fill-rule="evenodd" clip-rule="evenodd" d="M6.59321 5.96102H11.4161V6.23838C11.4284 7.54047 11.0412 8.81503 10.3067 9.8902C9.80876 10.557 9.15781 11.0943 8.40873 11.4567C7.65965 11.8192 6.83439 11.9962 6.00254 11.9729C5.21131 11.9889 4.42498 11.8451 3.6906 11.5502C2.95623 11.2552 2.28891 10.8151 1.72859 10.2562C1.16826 9.69734 0.726453 9.03117 0.429597 8.29756C0.13274 7.56394 -0.0130615 6.77798 0.000918056 5.9867C0.000918056 2.61994 2.58442 0.000484972 6.0385 0.000484972C7.31383 -0.0160637 8.55856 0.391321 9.57733 1.1587C10.0835 1.55296 10.5336 2.01433 10.9153 2.53006L9.95997 3.39806C9.65323 2.94685 9.28696 2.53912 8.8711 2.18593C8.07661 1.5344 7.07322 1.19234 6.0462 1.2229C3.25212 1.2229 1.30807 3.3236 1.30807 6.01239C1.30807 9.17114 3.8248 10.7659 6.01025 10.7659C6.71947 10.7825 7.4205 10.6115 8.04238 10.2701C8.66426 9.92877 9.18491 9.42916 9.55164 8.82188C9.83507 8.3177 9.99523 7.75362 10.019 7.17573H6.59321V5.96102ZM20.1504 0.19815V10.5578H23.3425V11.7725H18.8663V0.19815H20.1504ZM34.9039 0.00875774C31.573 0.00875774 28.8843 2.54346 28.8843 5.99497C28.9168 7.57028 29.5654 9.07009 30.691 10.1727C31.8166 11.2753 33.3295 11.8928 34.9051 11.8928C36.4808 11.8928 37.9937 11.2753 39.1193 10.1727C40.2449 9.07009 40.8935 7.57028 40.926 5.99497C40.926 2.54346 38.2347 0.00875774 34.9039 0.00875774ZM31.0276 8.58819C30.5027 7.82409 30.2154 6.9219 30.2017 5.99497C30.1952 5.37241 30.312 4.75471 30.5451 4.17742C30.7783 3.60013 31.1233 3.07464 31.5603 2.63119C31.9974 2.18774 32.5177 1.83508 33.0915 1.59348C33.6654 1.35189 34.2813 1.22613 34.9039 1.22346C35.8309 1.22356 36.7372 1.49768 37.5089 2.01136C38.2806 2.52504 38.8832 3.25536 39.2411 4.11054C39.5989 4.96571 39.696 5.90758 39.5201 6.81777C39.3442 7.72796 38.9032 8.56586 38.2525 9.22615C37.6018 9.88644 36.7705 10.3396 35.863 10.5288C34.9555 10.718 34.0123 10.6347 33.1519 10.2895C32.2916 9.94417 31.5526 9.35228 31.0276 8.58819ZM53.2686 2.48891C53.1023 2.15904 52.8728 1.86501 52.5932 1.62347C52.2167 1.34721 51.7579 1.20606 51.2912 1.22285C50.1458 1.22285 49.3472 1.93421 49.3472 3.02051C49.3351 3.21063 49.3682 3.40092 49.4436 3.57585C49.519 3.75079 49.6347 3.90543 49.7812 4.0272C50.1349 4.34232 50.5442 4.58878 50.9882 4.75397L52.0976 5.23934C52.7602 5.48667 53.3701 5.85697 53.8953 6.33078C54.1733 6.60329 54.3912 6.93098 54.5349 7.29278C54.6787 7.65458 54.7451 8.04246 54.7299 8.43148C54.7299 10.5656 53.1505 11.9883 51.0678 11.9883C50.607 12.0078 50.1469 11.935 49.7147 11.774C49.2824 11.613 48.8868 11.3672 48.5511 11.0509C48.0065 10.4808 47.6336 9.76877 47.475 8.99646L48.7257 8.64976C48.8022 9.2 49.044 9.71404 49.4191 10.1238C49.6371 10.3407 49.8978 10.5099 50.1848 10.6204C50.4718 10.7309 50.7786 10.7805 51.0858 10.7659C52.6651 10.7659 53.397 9.63847 53.397 8.47513C53.4067 8.22134 53.3604 7.96853 53.2615 7.73464C53.1625 7.50075 53.0133 7.2915 52.8244 7.12174C52.4067 6.78469 51.9387 6.5152 51.4376 6.32307L50.395 5.8377C49.8289 5.61392 49.3072 5.29132 48.8541 4.88495C48.5894 4.64808 48.3805 4.35548 48.2424 4.02822C48.1043 3.70095 48.0404 3.34716 48.0554 2.99226C48.0554 1.1946 49.4268 0.00814662 51.3015 0.00814662C51.959 -0.0200712 52.6087 0.159647 53.1582 0.521764C53.634 0.850393 54.0213 1.29147 54.2856 1.80581L53.2686 2.48891ZM66.6022 1.62317C66.8835 1.86367 67.114 2.15789 67.2801 2.48861L68.3151 1.80808C68.0524 1.29265 67.6648 0.851203 67.1877 0.524034C66.6381 0.161916 65.9885 -0.017802 65.3309 0.0104158C63.4562 0.0104158 62.0874 1.19687 62.0874 2.99453C62.0725 3.34943 62.1363 3.70322 62.2744 4.03048C62.4125 4.35775 62.6214 4.65035 62.8861 4.88721C63.3384 5.29465 63.8604 5.61737 64.427 5.83997L65.4671 6.32534C65.9689 6.51765 66.4377 6.78712 66.8564 7.12401C67.0453 7.29377 67.1945 7.50302 67.2935 7.73691C67.3925 7.9708 67.4388 8.22361 67.4291 8.4774C67.4291 9.64074 66.6818 10.7681 65.1024 10.7681C64.7956 10.7825 64.4892 10.7329 64.2027 10.6224C63.9162 10.5118 63.6559 10.3428 63.4383 10.1261C63.0614 9.71719 62.8186 9.20285 62.7423 8.65203L61.4942 8.99873C61.6528 9.77104 62.0257 10.4831 62.5703 11.0532C62.9058 11.3697 63.3014 11.6157 63.7337 11.7767C64.166 11.9377 64.6261 12.0104 65.087 11.9905C67.1671 11.9905 68.7465 10.5678 68.7465 8.43375C68.7622 8.0449 68.6963 7.65708 68.553 7.29527C68.4097 6.93346 68.1921 6.60568 67.9144 6.33305C67.3888 5.85994 66.779 5.48971 66.1168 5.24161L65.0074 4.75624C64.5605 4.59114 64.1485 4.34375 63.7927 4.0269C63.6462 3.90513 63.5305 3.75049 63.4551 3.57555C63.3797 3.40061 63.3466 3.21033 63.3587 3.02021C63.3587 1.93391 64.1573 1.22255 65.3001 1.22255C65.7669 1.20576 66.2256 1.34691 66.6022 1.62317ZM85.6798 6.22081H90.536C90.536 7.27887 90.31 8.80688 89.3547 10.0216C88.3275 11.321 86.7712 11.9631 85.0018 11.9631C81.5991 11.9631 79.0156 9.46431 79.0156 6.0128C79.0156 2.56129 81.6864 0.0445467 85.0531 0.0445467C86.3709 0.0220323 87.6545 0.46387 88.6793 1.29265C89.2135 1.70582 89.6819 2.19763 90.0686 2.75132L89.46 3.2367C89.1612 2.75212 88.7866 2.3186 88.3506 1.95265C87.4209 1.17348 86.2481 0.743784 85.0352 0.737934C82.069 0.737934 79.8142 3.09802 79.8142 6.04619C79.8142 8.94556 81.9997 11.2697 84.9838 11.2697C86.9612 11.2697 88.3839 10.263 89.008 9.31022C89.4573 8.58676 89.7219 7.76394 89.7784 6.91419H85.6798V6.22081ZM98.7544 0.901803H103.534L103.536 0.19815H97.984V11.7674H103.541V11.074H98.7544V5.78117H103.439V5.10062H98.7544V0.901803ZM110.804 11.7724V0.0773577L120.521 10.2444V0.198066H121.292V12.0678L111.574 1.90071V11.7724H110.804ZM130.311 11.7725V0.19815H129.541V11.7725H130.311ZM139.289 0.19815V7.43502C139.289 8.52903 139.341 9.23268 139.775 9.93377C140.45 11.0252 141.719 11.2692 142.463 11.2692C143.208 11.2692 144.477 11.0124 145.152 9.93377C145.586 9.24039 145.64 8.52903 145.64 7.43502V0.19815H146.411V7.43502C146.411 8.70109 146.341 9.53315 145.751 10.4012C144.883 11.6672 143.514 11.9626 142.471 11.9626C141.428 11.9626 140.06 11.6672 139.192 10.4012C138.604 9.53315 138.532 8.70109 138.532 7.43502V0.19815H139.289ZM158.383 1.11433C158.786 1.3667 159.108 1.73009 159.31 2.16086L159.895 1.69346C159.625 1.1828 159.217 0.757872 158.718 0.466567C158.219 0.175263 157.648 0.0291566 157.07 0.0447386C155.006 0.0447386 154.104 1.58817 154.104 2.92357C154.099 3.38911 154.226 3.84662 154.469 4.24357C154.867 4.901 155.44 5.21431 156.585 5.76902C157.54 6.23898 158.216 6.58567 158.545 6.7757C159.418 7.315 159.675 7.97243 159.675 8.59904C159.675 10.1245 158.442 11.2699 156.88 11.2699C156.468 11.2761 156.059 11.1906 155.684 11.0196C155.309 10.8486 154.976 10.5964 154.71 10.2812C154.445 9.94641 154.235 9.57201 154.086 9.17174L153.426 9.48246C153.591 9.94919 153.844 10.3793 154.174 10.7485C154.497 11.1455 154.908 11.4618 155.375 11.6726C155.842 11.8834 156.351 11.9829 156.862 11.9632C158.827 11.9632 160.458 10.5251 160.458 8.58108C160.468 8.1325 160.36 7.6891 160.144 7.29583C159.928 6.90256 159.612 6.57339 159.228 6.3417C158.776 6.02502 158.347 5.81845 157.655 5.48527C157.437 5.38074 157.194 5.26376 156.916 5.127L156.889 5.11345C155.739 4.54768 154.888 4.12841 154.888 2.89019C154.874 2.60411 154.92 2.31828 155.023 2.05104C155.126 1.78381 155.284 1.54107 155.486 1.33842C155.688 1.13577 155.931 0.977684 156.198 0.874305C156.465 0.770925 156.751 0.72454 157.037 0.738126C157.513 0.731323 157.98 0.861953 158.383 1.11433Z" fill="black"/>
</g>
<defs>
<clipPath id="clip0_1036_15409">
<rect width="161" height="13" fill="white"/>
</clipPath>
</defs>
</svg>

